<?xml version="1.0" encoding="utf-8"?>
<!-- Generator: Adobe Illustrator 22.0.1, SVG Export Plug-In . SVG Version: 6.00 Build 0)  -->
<svg version="1.1" xmlns="http://www.w3.org/2000/svg" xmlns:xlink="http://www.w3.org/1999/xlink" x="0px" y="0px"
	 viewBox="0 0 943.7 1029.4" style="enable-background:new 0 0 943.7 1029.4;" xml:space="preserve">
<style type="text/css">
	.st0{fill:#ED1C24;}
	.st1{fill:#FFFFFF;}
	.st2{fill:#29ABE2;}
	.st3{fill:#D1CFCF;}
	.st4{fill:#9E7366;}
	.st5{fill:#825C56;}
	.st6{fill:#333333;}
	.st7{fill:#E6E6E6;}
	.st8{fill:#8C645B;}
	.st9{fill:none;}
	.st10{fill:#A67C52;}
	.st11{fill:#CCCCCC;}
	.st12{fill:#8C6239;}
	.st13{fill:none;stroke:#000000;stroke-miterlimit:10;}
	.st14{fill:#A67C52;stroke:#000000;stroke-miterlimit:10;}
	.st15{fill:#B3B3B3;}
	.st16{fill:#CCCCCC;stroke:#000000;stroke-miterlimit:10;}
	.st17{fill:#8C6239;stroke:#000000;stroke-miterlimit:10;}
	.st18{fill:#333333;stroke:#000000;stroke-miterlimit:10;}
	.st19{fill:none;stroke:#999999;stroke-width:3;stroke-miterlimit:10;}
</style>
<g id="Layer_1">
</g>
<g id="Layer_2">
	<path class="st10" d="M349.8,1049.8c-6.2-7.1-14.4-18.7-17.1-34.4c-3-17.3,3.7-23.2-0.5-33.8c-7.7-19.5-42.5-30.6-70.5-22.4
		c-6,1.8-28.9,8.6-38.1,31.8c-6.3,15.9-5.4,37.5,6.6,49.8c8,8.2,17.9,9,72.8,9.1C317.3,1049.9,332.9,1049.9,349.8,1049.8z"/>
	<path class="st11" d="M418.8,65.7c-1.1,0.5-2.3,1.1-2.3,1.1s-4.8,2.3-8.9,4.4c-16.1,8.6-27.6,20.4-27.6,20.4
		c-5.3,5.4-13.5,13.9-19.3,27.7c-3.8,9.1-5.3,17.2-5.9,22.8c-2.4,18.1,1,31.8,2.9,40.4c6,27.1,8.2,54.7,8.1,73.4
		c-0.2,29.2-6.1,28.2-6.6,63.2c-0.2,14.9-4.2,30.1-1.5,44.8c0.7,4,2.5,11.6-1.5,18.4c-3.1,5.3-8.2,7.4-13.2,9.5
		c-15.3,6.7-29.3,16.2-44.1,24.2c-16.4,8.9-12.4,7.8-20.6,11.8c-23.7,11.5-33.1,9.1-51.4,20.6c-2.2,1.3-10,6.4-18.4,14.7
		c-13.7,13.6-20.1,27.5-25,38.2c-26.2,57.8-36.1,84.8-39.7,94.7c-7.9,22.1-12.4,36.4-12.5,52.1c0,2.8,0.1,7.7-0.7,14.7
		c-1.5,13-4.9,20.5-8.1,30.8c-4.6,14.8-1.7,11.8-7.3,33.8c-6.1,23.8-9.2,35.7-13.2,41.1c-1.2,1.6-4.7,6.1-5.1,12.5
		c-0.2,3.9,0.8,6.7,1.5,8.8c0.6,1.8,6.9,20.7,8.8,36.7c0.8,6.7-0.1,5.4,0.7,11c1.8,12.4,5.9,18.1,9.5,27.2
		c9.2,23.1,0.5,32.5,11.8,46.3c4.8,5.8,6,3.7,10.3,9.5c8.7,11.9,4.1,21,11.8,35.3c4.9,9.1,6.9,5.6,12.5,15.4
		c8.2,14.5,5,23.9,14,31.6c4.7,4,6.1,1.8,12.5,5.9c13.5,8.5,10.7,20.4,20.6,29.4c13.6,12.4,41.6,10.4,53.6-2.2
		c3.9-4,1.8-4.8,7.3-12.5c9.6-13.4,22-20.3,30.8-25c4.6-2.4,11-5.5,19.1-8.1c0.2,4.8,0,12.2-2,20.9c-3.7,16.2-10.3,21.2-9.2,26.7
		c3.3,15.9,66.3,15.7,71.9,15.7c115.2-0.3,193.3,9.7,296.6,1.8c0,0,10-0.8,39.6-6.2c28.5-5.2,38.6-8.8,47-17.1
		c5.2-5.2,7.7-10.3,12-19.1c4.6-9.3,5.6-14.6,12-39.6c8.4-32.8,9.7-36.2,12-40.5c5.7-10.9,9.1-12.3,11.1-21.2
		c3.1-13.9-3.3-18.5,0.9-28.6c4.4-10.3,12.7-9.4,16.6-20.3c2.5-7.1-0.7-8.6,0-19.3c1.2-20.1,13-24.8,10.1-37.8
		c-2.2-9.9-9.6-9.9-10.1-18.4c-0.7-11.4,12.4-15.9,17.5-27.6c7.3-16.6-6.2-36.3-13.8-49.7c-10.2-18.2-2-11.5-26.7-117.9
		c-5.7-24.4-14.8-62.3-33.2-102.3c-5.5-12-12-24.6-24.9-35.9c-11-9.7-22.2-14.5-44.2-24c-25.9-11.1-27.2-8.3-40.5-16.6
		c-9.1-5.7-14.7-10.9-30.4-20.3c-6.9-4.1-12.7-7.2-16.6-9.2c1.5-3.5,3.4-8.9,4.6-15.7c2.2-12.4,0.6-22.3,0-25.8
		c-4.4-27.4-8.9-75.4-10.1-98.6c-1.3-23.6,1-20.5,0-54.4c-1-36.8-1.3-55.1-4.6-66.3c-10.2-34.5-45-65-80.1-70.9
		c-21-3.6-20.3,5.2-59.7,4.6C467.4,56.9,438.8,56.5,418.8,65.7z"/>
	<path class="st12" d="M491.4,439c4.6-0.6,7.2-4.5,16.5-20.6c19.4-33.6,25.4-46.1,25.4-46.1c18.4-37.5,25.8-50.6,24-51.8
		c-2.3-1.5-12.6,22.2-38.4,36.6c-6.7,3.7-29,15.8-57.1,9.6c-22.6-5-37.6-20.9-44-27.5c-3.6-3.8-6.4-7.2-8.2-9.6
		c1.6,6.5,4.5,16.5,10.3,27.5c9,17.1,16.3,20.8,34.4,41.9C477.8,426.7,482.2,440.3,491.4,439z"/>
	<path class="st10" d="M384,178.9c0.6,16,4.5,19.4,4.8,35.4c0.1,7.7-0.7,10.5-1.6,19.9c-1.8,19-1.1,36.1,0,45.6
		c1.3,11.4,4.3,38.6,24.7,62.8c16,18.9,34.6,26.5,39.7,28.4c8,3,35.2,13.4,60.6,1.1c7.5-3.6,12.4-8,17.7-12.9
		c14.3-13,21.5-27.1,27.4-38.6c3.1-6.2,7.4-14.7,10.7-26.3c4.3-14.8,2.2-18.1,4.3-52.6c1.4-22.8,3.3-52.3,9.7-61.7
		c0.5-0.8,2.3-3.2,2.1-6.4c-0.2-3.2-2.4-5.6-7-10.2c-4.4-4.5-6.7-6.8-9.7-7.5c-4.2-1.1-5.8,1.1-9.7,1.1c-7.4,0-10.4-7.8-20.9-17.7
		c-5.6-5.3-12.1-11.4-20.9-13.9c-4.8-1.4-13.6-2.8-25.8,2.1c-1.1-1.6-2.8-3.8-5.4-5.9c-2.8-2.3-8.1-5.5-26.8-5.9
		c-14.6-0.3-22-0.5-30,3.2c-5.1,2.4-9.5,5.7-13.4,8.6c-1.2,0.9-4.7,3.6-12.3,10.7c-8.3,7.8-12.5,11.7-13.9,13.9
		C383.4,159.8,383.7,167.7,384,178.9z"/>
	<path class="st13" d="M565.3,234.4c-1.3,3.1-4.8,11.3-13.6,16.5l-0.6,0.3c-1.3,0.8-2.7,1.4-4,1.9h0c-8.4,3.2-16,1.8-19.3,1.2
		c-4.6-0.8-14.4-3.5-22-12.3c-6.8-7.9-8-16.3-9.1-24.1c-0.3-2.4-0.4-4.2-0.2-5.7c0.1-0.9,0.2-1.7,0.5-2.5
		c1.8-6.5,7.5-10.2,10.3-11.9c3.2-2,6.5-3.3,10-4c2.7-0.6,5.5-0.8,8.5-0.8c6.3,0,13.5,1,22.4,2.2c6.6,0.9,12,2.1,15.4,6.6
		c0.6,0.8,2,2.8,3.1,8.4c0.3,1.6,0.6,3.3,0.9,5.2C568.1,220.6,568.2,227.2,565.3,234.4z"/>
	<path class="st6" d="M578.2,206.1c-1.4,2.1-3.8,1-6.2,3.5c-1.9,2-1.2,3.7-3.2,5c-0.4,0.2-0.9,0.5-1.4,0.7c-1.3,0.4-2.7,0.5-3.6-0.4
		c-0.9-1,0-2.6,0-4.4c0.1-4.3-4.8-7.8-7-9.4c-1.7-1.2-7.6-5-28.4-4.2c-0.4,0-0.8,0-1.2,0.1c-3,0.1-5.6,0.3-7.9,0.6
		c-14.2,1.6-16,4.8-16.5,5.9c-1.2,2.7-0.3,6.2-2.9,7.9c-0.9,0.6-2.2,0.9-3.3,0.8c-0.6-0.1-1.1-0.2-1.7-0.5c-2.3-1.2-2.9-4-2.6-5.9
		c0.3-2.2,1.8-3.7,2.9-4.7c7-6,16.5-7.6,16.5-7.6c1.8-0.3,3.5-0.6,5.2-0.7c2.9-0.4,5.7-0.6,8.3-0.7c7.1-0.3,13.4,0.1,19.3,0.5
		c17.3,1.2,12.3,2.8,22,2.9c3.6,0,7.7-0.2,10.3,2.6C578.6,200.3,579.6,203.9,578.2,206.1z"/>
	<path class="st6" d="M472.7,200.7c1.7-1.2,3.4-1.1,6.7-1.2c7.5-0.1,8.3-0.5,10.9,0.2c4.3,1.1,5.1,2.6,5.3,3.1
		c0.1,0.2,0.7,1.8,0,2.7c-1.1,1.4-4.1-0.7-9.3-1c-4.2-0.2-5.9,1-12.4,0.6c-1.6-0.1-3.1-0.3-3.5-1.1
		C470.1,203,471.6,201.5,472.7,200.7z"/>
	<path class="st14" d="M463.3,234.6c-0.8,1.1-3.8,5.3-9.2,9.3c-1.6,1.2-3.3,2.3-5.3,3.3c-2.8,1.5-5.9,2.7-9.5,3.6
		c-4.2,1-14.4,3.4-24.3-2.1c-6.5-3.6-9.8-9-10.8-10.6c-3.1-5.2-3.7-10-4.6-17.1c-0.6-4.7-0.5-8.6-0.4-11.7c0.1-1.7,0.2-3.1,0.4-4.3
		c0.5-5.4,0.8-8.1,2-9.8c3-4.5,9-5.1,20.5-5.6c0.5,0,1.1-0.1,1.6-0.1c2.5-0.1,4.9-0.2,7-0.1c7.9,0.1,14.1,1.3,24,3.1
		c5,0.9,8.8,1.8,11.7,5c0.6,0.7,2.8,3.8,3.9,11.1c0.1,0.8,0.2,1.7,0.3,2.5C471.6,222.8,465.2,231.9,463.3,234.6z"/>
	<path class="st6" d="M386.8,274.7c-1,0-2.3-2-8.2-32.7c-3.2-16.8-5.6-30.8-7.2-40.4c-2.4-16.5-3-25.4-6.8-35.8
		c-0.5-1.4-1.9-5-3.1-10.1c-1.3-5.5-2.7-11.1-2.3-17.2c0.7-10,5.2-9.9,7-21.7c1.2-7.8-0.5-9.9,2-14.7c2.3-4.4,5.9-6.8,10.7-9.9
		c9.9-6.4,13.4-4.5,17.2-9.3c4.1-5.1,1.3-8.8,4.8-15.5c2.7-5.2,7.1-7.6,15.8-12.4c13-7.1,23.4-12.8,36.9-12.1
		c7.6,0.4,6.9,2.3,16.1,2.8c11.6,0.6,15-2.3,26.5-2.8c2.2-0.1,1.8,0,25.1,3.1c18.4,2.4,23.5,3,28.2,7.6c3.5,3.5,2.4,4.9,6.5,9.6
		c6.8,7.6,13.5,7.9,19.7,11.6c12.6,7.5,15.4,24.7,17.8,38.9c2.3,13.9,1.1,25-0.8,38c-3.9,26.8-8,42.6-14.1,70.4
		c-6.5,29.7-8.1,47.5-9.3,47.3c-1.6-0.2-0.1-28.6,0.8-46.5c1.8-34.8,3.3-40.6-1.1-48.7c-3.4-6.2-9.8-13.1-44-23.7
		c-46.9-14.5-70.4-21.7-92.1-11.8c-17.3,7.8-33.5,24.3-38.3,43.7c-2.3,9.4,0,11.3,0.3,31.8C395.2,243.8,390.7,274.6,386.8,274.7z"/>
	<path class="st6" d="M475.7,205.5c-0.1,0.3-0.8,4.4-3.8,5.3c-0.3,0.1-0.7,0.2-1.1,0.2c-0.8,0.1-1.8-0.1-2.4-0.8
		c-1.3-1.3-0.2-3.2-0.6-5.3c-0.5-2.7-3.4-4.4-9.1-6.8c-5.8-2.3-10.2-4.1-17.3-5.3c-3.1-0.5-5.8-0.7-8.6-0.8c-2.8-0.1-5.6,0-9.2,0.2
		c-0.4,0-0.8,0-1.2,0.1c-9.4,0.4-12.2,1.5-14.1,3.5c-3.2,3.4-4.4,7.3-4.4,7.3c-0.7,2.5-0.6,4.2-2,5.3c-0.6,0.4-1.5,0.7-2.3,0.7
		c-0.9,0-1.8-0.2-2.4-0.7c-1.2-1-0.8-2.6-1.8-2.9c-0.6-0.2-1.1,0.1-3.2,1.5c-3.3,2.1-3.7,2.6-4.1,2.3c-1.2-0.6-1.3-3.9,0-6.2
		c0.8-1.3,1.5-1.5,2.3-3.2c0.1-0.3,0.7-1.5,0.9-3.2c0.2-2.3-0.3-3.5-0.3-4.1c0.1-2.2,8.1-5.8,30.4-5.8c2.5,0,5.1,0,8,0.2
		c2.3,0.1,4.8,0.2,7.4,0.3c5.7,0.3,31,2,37,10.9C474.3,199.1,476.3,202.1,475.7,205.5z"/>
	<path class="st15" d="M266.8,911c2.2-0.6,0.5-9.2,0.5-26.3c0-14.3,1.2-17.9,2.1-33.8c1.8-29.1-1.5-26.4,0-54.3
		c0.5-8.5,1.7-25.5,1.1-48.4c0,0-0.4-15-2.1-15c-1.2-0.1-0.4,7.7-5.4,14c-6.1,7.6-14.1,4.8-18.3,11.3c-3.8,6,2.1,9.7,0,19.3
		c-3,13.5-17.1,17.8-15,25.8c0.8,3,2.8,2.4,4.8,7.5c2.2,5.3,0.4,6.9,2.7,12.4c1.8,4.3,3.5,4.7,3.8,8.1c0.2,3-1.2,3.5-1.1,7
		c0.1,4,2,7,2.7,8.1c2.2,3.4,4.9,4.7,6.4,5.9c6.7,5.4,1.4,17.6,3.2,31.7C254.3,899.3,263.9,911.8,266.8,911z"/>
	<path class="st15" d="M720.5,586.2c-1.3,0.1,1,29.4,1,29.4c3.7,46.9-1.7,83.8-5.1,106.4c-5.1,34.8-7.7,52.2-15.2,62.9
		c-4.3,6.1-12,14.9-13.2,28.4c-0.8,9.4,2.2,14.1,5.1,24.3c6.4,22.5,4.1,43.2,1,71c-1.1,10-1.4,16.5-2,29.4
		c-0.5,9.8-0.5,14.8,0.2,14.9c1.2,0.2,0.6-16.3,9.3-31.3c11.6-20.1,33.7-27,32.1-30.4c-1.3-2.9-16.3,3-17.8,0
		c-1.3-2.8,8.8-13.9,22-16.1c16.1-2.7,28.7,9.2,30.4,6.8c1.6-2.2-6.3-14-19.5-20.3c-16.9-8.1-32-1.9-33.8-6.8
		c-1.6-4.3,8.6-13.7,20.3-19.5c26.5-13.1,53.2-4.1,55-10.1c0.9-3.1-5.3-8-11-11c-26.1-13.7-59.2,4-60,1.7
		c-0.6-1.5,13.5-9.5,46.5-22.8c28.2-11.4,41.9-15.1,41.4-16.9c-0.5-2.2-22.9-0.4-45.7,5.9c-23.5,6.5-38.7,15.3-39.7,13.5
		c-1.5-2.6,29.7-23.1,28.8-24.5c-0.8-1.3-24.5,18.1-33.8,11.8c-12.5-8.4,7.9-59.2,9.3-62.6c17.7-43.2,35.5-48.1,45.7-84.6
		c8.5-30.3,4.6-57.3,2.5-57.5c-2-0.2-3.5,25.7-16.1,60.9c-7.6,21.2-22.5,55-28.8,53.3c-5.5-1.5-4.3-30.5,3.4-55
		c4.7-14.9,15.3-28.3,13.5-29.6c-1.5-1.1-8.2,9.8-14.4,8.5C722.7,614.3,721.7,586.1,720.5,586.2z"/>
	<path class="st15" d="M293.6,812.3c-3-0.3-6.6,12.1-7.9,16.6c-4.6,15.7-4.1,28.9-3.6,36.7c0.9,15.5,2.9,27,11.5,69.2
		c4.7,22.9,6.2,29.7,7.2,29.5c1.3-0.2,0.6-11.4,0-33.9c-1-36.2-0.3-35.6-1.4-64.9C297.3,815.5,295,812.4,293.6,812.3z"/>
	<path class="st15" d="M209.4,605.2c1.1,0.1-1.3,11.4,0.9,28.3c4.5,35.1,23.2,48,32.5,89.9c4,17.8,1.4,19.4,0.9,19.7
		c-2.5,1.1-7.7-5.8-8.6-6.8c-8.9-11.7-8.7-24-10.3-34.2c-3.6-24.2-14.5-22.3-19.7-46.2C199.5,629.6,207.7,605.1,209.4,605.2z"/>
	<path class="st13" d="M441.2,402c-0.8,2.9-2.1,7.2-4.5,12.2c-10.3,21-27.9,28.7-48,42.1c-26.8,17.9-43.9,36.8-47.7,41.1
		c-15.6,17.5-28.9,38.2-36.9,50.5c-5.5,8.6-9.9,15.8-12.9,20.9"/>
	<path class="st13" d="M532.3,390c-0.2,4.5-0.8,11.7-3.2,20.1c-5.3,18.5-15.6,30.3-18.5,33.8c-13.1,15.9-20.7,45.2-35.4,103.1
		c-19.7,77.5-13.8,77.7-25,108c-14,38.2-34.6,68.5-54.8,91.8"/>
	<path class="st9" d="M332.6,925.9c-5.8,3.3-4.2,15.4-3.3,26.8c1.4,19.5,2.8,39.6-3.3,55.6c-8,20.8-25.2,24.8-23.4,31.5
		c4.2,16.1,97.8,3.3,97.8,3.3c265.4,0.1,328.8-2.9,328.8-6c0-1.2-8.8-1.1-18.1-8c-13.8-10.3-16.3-26.8-20.8-44.9
		c-3.7-15.1-9.9-35.7-20.8-60.3c-11.5-1-28.4-2.4-48.9-4c-61.5-5-92.5-7.5-104.5-7.4c-37.5,0.3-73.7,5-97.1,8c0,0-27.5,3.6-52.2,4.7
		c-15.2,0.7-22.8,1.1-25.5,0.7C337.1,925.3,334.9,924.6,332.6,925.9z"/>
	<path class="st9" d="M429.2,187c-2.9-0.1-5.5-0.2-8-0.2"/>
	<path class="st9" d="M525.1,192.1c-2.7,0.1-5.4,0.3-8.3,0.7"/>
</g>
</svg>
